<svg width="1024" height="1024" viewBox="0 0 1024 1024" fill="none" xmlns="http://www.w3.org/2000/svg">
  <defs>
    <mask id="coachCutout">
      <rect width="1024" height="1024" fill="white"/>
      <circle cx="446" cy="364" r="74" fill="black"/>
      <path d="M316 556C360 510 428 482 502 488C601 496 680 562 711 659C668 696 612 718 553 718C504 718 458 703 422 677C370 639 307 620 240 620H164L316 556Z" fill="black"/>
      <path d="M631 338C656 338 679 351 693 372L744 458L686 448C656 443 626 454 605 477L566 519L553 478C543 445 553 410 576 384L606 351C611 343 620 338 631 338Z" fill="black"/>
    </mask>
  </defs>

  <circle cx="512" cy="512" r="350" stroke="#F47A20" stroke-width="34"/>

  <g mask="url(#coachCutout)">
    <path d="M370 288H590C711 288 808 385 808 506C808 626 711 724 590 724H480L542 607H590C646 607 691 562 691 506C691 451 646 405 590 405H430L370 288Z" fill="#F47A20"/>
    <path d="M210 824L382 538H260L464 264L393 489H534L210 824Z" fill="#F47A20"/>
  </g>
</svg>
